STARTFONT 2.3
FONT -FontForge-Tangerine-Book-R-Normal--14-140-72-72-P-52-ISO10646-1
SIZE 14 72 72  4
FONTBOUNDINGBOX 24 16 -5 -4
COMMENT "Generated by fontforge, http://fontforge.sourceforge.net"
COMMENT "Copyright (c) 2010 by Toshi Omagari. All rights reserved."
STARTPROPERTIES 40
FOUNDRY "FontForge"
FAMILY_NAME "Tangerine"
WEIGHT_NAME "Book"
SLANT "R"
SETWIDTH_NAME "Normal"
ADD_STYLE_NAME ""
PIXEL_SIZE 14
POINT_SIZE 140
RESOLUTION_X 72
RESOLUTION_Y 72
SPACING "P"
AVERAGE_WIDTH 52
CHARSET_REGISTRY "ISO10646"
CHARSET_ENCODING "1"
FONTNAME_REGISTRY ""
CHARSET_COLLECTIONS "ISO10646-1"
BITS_PER_PIXEL 4
FONT_NAME "Tangerine-Regular"
FACE_NAME "Tangerine Regular"
COPYRIGHT "Copyright (c) 2010 by Toshi Omagari. All rights reserved."
FONT_VERSION "1.3"
FONT_ASCENT 11
FONT_DESCENT 3
UNDERLINE_POSITION -1
UNDERLINE_THICKNESS 1
X_HEIGHT 3
CAP_HEIGHT 8
RAW_ASCENT 750
RAW_DESCENT 250
NORM_SPACE 2
RELATIVE_WEIGHT 40
RELATIVE_SETWIDTH 50
SUPERSCRIPT_X 0
SUPERSCRIPT_Y 6
SUPERSCRIPT_SIZE 9
SUBSCRIPT_X 0
SUBSCRIPT_Y 1
SUBSCRIPT_SIZE 9
AVG_LOWERCASE_WIDTH 34
AVG_UPPERCASE_WIDTH 99
ENDPROPERTIES
CHARS 233
STARTCHAR space
ENCODING 32
SWIDTH 150 0
DWIDTH 2 0
BBX 1 1 0 0
BITMAP
00
ENDCHAR
STARTCHAR exclam
ENCODING 33
SWIDTH 189 0
DWIDTH 3 0
BBX 5 8 0 0
BITMAP
000330
000900
001600
005100
005000
032000
000000
260000
ENDCHAR
STARTCHAR quotedbl
ENCODING 34
SWIDTH 214 0
DWIDTH 3 0
BBX 4 3 0 3
BITMAP
0435
1550
1010
ENDCHAR
STARTCHAR numbersign
ENCODING 35
SWIDTH 289 0
DWIDTH 4 0
BBX 5 4 0 0
BITMAP
014500
1BFF30
5F9200
420000
ENDCHAR
STARTCHAR dollar
ENCODING 36
SWIDTH 269 0
DWIDTH 4 0
BBX 4 6 0 -1
BITMAP
0043
0475
0670
1270
7550
2100
ENDCHAR
STARTCHAR percent
ENCODING 37
SWIDTH 388 0
DWIDTH 5 0
BBX 6 7 0 -1
BITMAP
000010
000050
005410
747470
574441
050940
310000
ENDCHAR
STARTCHAR ampersand
ENCODING 38
SWIDTH 507 0
DWIDTH 7 0
BBX 7 7 0 0
BITMAP
005D1000
00740000
00440000
04800670
52755000
801C3000
4845A730
ENDCHAR
STARTCHAR quotesingle
ENCODING 39
SWIDTH 120 0
DWIDTH 2 0
BBX 3 2 0 4
BITMAP
0620
1300
ENDCHAR
STARTCHAR parenleft
ENCODING 40
SWIDTH 250 0
DWIDTH 4 0
BBX 4 11 1 -2
BITMAP
0023
0060
0610
0800
4500
7100
8000
7000
6000
5000
1000
ENDCHAR
STARTCHAR parenright
ENCODING 41
SWIDTH 276 0
DWIDTH 4 0
BBX 4 11 0 -2
BITMAP
0004
0005
0006
0007
0008
0026
0072
0080
0430
1500
2000
ENDCHAR
STARTCHAR asterisk
ENCODING 42
SWIDTH 188 0
DWIDTH 3 0
BBX 3 3 0 3
BITMAP
1510
1700
1010
ENDCHAR
STARTCHAR plus
ENCODING 43
SWIDTH 301 0
DWIDTH 4 0
BBX 4 5 0 0
BITMAP
0020
0050
3FFB
0330
0200
ENDCHAR
STARTCHAR comma
ENCODING 44
SWIDTH 112 0
DWIDTH 2 0
BBX 2 2 0 -1
BITMAP
42
40
ENDCHAR
STARTCHAR hyphen
ENCODING 45
SWIDTH 245 0
DWIDTH 3 0
BBX 1 1 3 2
BITMAP
00
ENDCHAR
STARTCHAR period
ENCODING 46
SWIDTH 112 0
DWIDTH 2 0
BBX 2 1 0 0
BITMAP
61
ENDCHAR
STARTCHAR slash
ENCODING 47
SWIDTH 210 0
DWIDTH 3 0
BBX 7 10 -1 -1
BITMAP
00000220
00000500
00004100
00014000
00040000
00230000
00500000
03200000
05000000
21000000
ENDCHAR
STARTCHAR zero
ENCODING 48
SWIDTH 349 0
DWIDTH 5 0
BBX 5 4 0 0
BITMAP
001250
030060
340140
1A6400
ENDCHAR
STARTCHAR one
ENCODING 49
SWIDTH 189 0
DWIDTH 3 0
BBX 4 5 0 0
BITMAP
0C60
02D1
0840
0A00
4500
ENDCHAR
STARTCHAR two
ENCODING 50
SWIDTH 277 0
DWIDTH 4 0
BBX 4 4 0 0
BITMAP
0368
0107
0140
4862
ENDCHAR
STARTCHAR three
ENCODING 51
SWIDTH 253 0
DWIDTH 4 0
BBX 5 6 -1 -2
BITMAP
002460
003950
011300
000720
413B10
7EA200
ENDCHAR
STARTCHAR four
ENCODING 52
SWIDTH 363 0
DWIDTH 5 0
BBX 7 8 0 0
BITMAP
00000320
00005700
00137000
01316000
06172200
26CFB000
00170000
00530000
ENDCHAR
STARTCHAR five
ENCODING 53
SWIDTH 250 0
DWIDTH 4 0
BBX 6 7 -1 -2
BITMAP
000011
003870
003000
00D600
001A00
303700
AE9100
ENDCHAR
STARTCHAR six
ENCODING 54
SWIDTH 296 0
DWIDTH 4 0
BBX 6 7 0 0
BITMAP
0005DC
007713
046000
091600
260800
440600
2A5100
ENDCHAR
STARTCHAR seven
ENCODING 55
SWIDTH 326 0
DWIDTH 5 0
BBX 6 6 0 -2
BITMAP
07FEB1
050110
000100
003000
160000
810000
ENDCHAR
STARTCHAR eight
ENCODING 56
SWIDTH 305 0
DWIDTH 4 0
BBX 5 7 0 0
BITMAP
002550
007080
009250
025A00
250630
630420
2A5300
ENDCHAR
STARTCHAR nine
ENCODING 57
SWIDTH 304 0
DWIDTH 4 0
BBX 6 7 -1 -2
BITMAP
000300
003261
013082
0562D0
03EB70
202810
5EA100
ENDCHAR
STARTCHAR colon
ENCODING 58
SWIDTH 156 0
DWIDTH 2 0
BBX 2 4 0 0
BITMAP
07
00
00
70
ENDCHAR
STARTCHAR semicolon
ENCODING 59
SWIDTH 156 0
DWIDTH 2 0
BBX 2 5 0 -1
BITMAP
07
00
00
51
40
ENDCHAR
STARTCHAR less
ENCODING 60
SWIDTH 301 0
DWIDTH 4 0
BBX 4 4 0 0
BITMAP
0002
0242
1C71
0195
ENDCHAR
STARTCHAR equal
ENCODING 61
SWIDTH 301 0
DWIDTH 4 0
BBX 4 3 0 0
BITMAP
1EFE
0000
5FF8
ENDCHAR
STARTCHAR greater
ENCODING 62
SWIDTH 301 0
DWIDTH 4 0
BBX 4 4 0 0
BITMAP
0100
0351
04A7
7810
ENDCHAR
STARTCHAR question
ENCODING 63
SWIDTH 285 0
DWIDTH 4 0
BBX 6 8 0 0
BITMAP
000550
004165
000033
000250
004200
054000
000000
260000
ENDCHAR
STARTCHAR at
ENCODING 64
SWIDTH 492 0
DWIDTH 7 0
BBX 7 7 0 -2
BITMAP
007EE700
087BA120
16613240
42779B20
34A7F700
08201400
00563000
ENDCHAR
STARTCHAR A
ENCODING 65
SWIDTH 996 0
DWIDTH 14 0
BBX 14 9 0 0
BITMAP
00000002467885
00000012000049
00000020000561
00000000005160
0000000A341150
00000004CFEE20
02000001400510
43000043000711
1A8654000004A3
ENDCHAR
STARTCHAR B
ENCODING 66
SWIDTH 638 0
DWIDTH 9 0
BBX 10 10 0 0
BITMAP
0000000100
0001348840
00120600A1
0010250081
0000714450
0000702A20
0002400190
0006000090
3B50000260
0176433500
ENDCHAR
STARTCHAR C
ENCODING 67
SWIDTH 557 0
DWIDTH 8 0
BBX 8 9 1 0
BITMAP
00233577
03200004
25000000
80000000
A0000000
B0000000
B0000020
66000140
06644800
ENDCHAR
STARTCHAR D
ENCODING 68
SWIDTH 799 0
DWIDTH 11 0
BBX 12 10 0 0
BITMAP
000000000100
000456885000
00300017A300
002000710A10
000000800280
000004400090
000007000071
000025000070
046560000040
643477765300
ENDCHAR
STARTCHAR E
ENCODING 69
SWIDTH 494 0
DWIDTH 7 0
BBX 8 9 0 0
BITMAP
00013365
00070003
00085000
0028F200
03820000
09000000
18000010
1A000040
05643610
ENDCHAR
STARTCHAR F
ENCODING 70
SWIDTH 626 0
DWIDTH 9 0
BBX 12 9 0 0
BITMAP
000014568EF9
000120008221
000000036000
000000071000
00004FFFD300
000000070000
130000510000
440002300000
097542000000
ENDCHAR
STARTCHAR G
ENCODING 71
SWIDTH 571 0
DWIDTH 8 0
BBX 11 12 -1 -3
BITMAP
00000018DE50
000002A51280
000019100030
000072000000
000090000000
000280000000
000280008000
000081055000
240001080000
720000250000
550001500000
075433000000
ENDCHAR
STARTCHAR H
ENCODING 72
SWIDTH 865 0
DWIDTH 12 0
BBX 17 10 0 0
BITMAP
000000000000004600
000024567000042310
000020070000400000
000000450004100000
000000910016000000
004BEFE86472000000
079311847AE6000000
260006100080000000
430033000171000000
1976300001B3000000
ENDCHAR
STARTCHAR I
ENCODING 73
SWIDTH 554 0
DWIDTH 8 0
BBX 11 9 0 0
BITMAP
000000026920
000000536000
000004217000
000004053000
000003070000
020000150000
250001610000
39114A200000
08ED91000000
ENDCHAR
STARTCHAR J
ENCODING 74
SWIDTH 634 0
DWIDTH 9 0
BBX 12 12 0 -3
BITMAP
000000002693
000000034420
000000230700
000000302600
000000306200
000000308000
002200037000
030000080000
500000450000
700003800000
A21379000000
4EEB50000000
ENDCHAR
STARTCHAR K
ENCODING 75
SWIDTH 936 0
DWIDTH 13 0
BBX 14 9 0 0
BITMAP
00001567930379
00004001504201
00030006141000
00020008310000
00010008800000
02000025720000
14000060280000
44000220092000
19654200019740
ENDCHAR
STARTCHAR L
ENCODING 76
SWIDTH 657 0
DWIDTH 9 0
BBX 11 9 0 0
BITMAP
00000005DC00
000000571620
000001700200
000006200000
000009000000
000027000000
166381000000
79BFA3114000
45315CFC2000
ENDCHAR
STARTCHAR M
ENCODING 77
SWIDTH 1219 0
DWIDTH 17 0
BBX 18 9 0 0
BITMAP
000000246788500027
000001100001A00291
000002000007402550
000000000038022800
020000000237130800
150000002344504400
450000024074006300
290000430093006310
06A866100070003B30
ENDCHAR
STARTCHAR N
ENCODING 78
SWIDTH 990 0
DWIDTH 14 0
BBX 18 9 0 0
BITMAP
000015796200000288
000020006700001501
000000004460005000
000000004072023000
000000013018040000
040000030008140000
420000120002720000
280002400000B00000
06A974000000600000
ENDCHAR
STARTCHAR O
ENCODING 79
SWIDTH 606 0
DWIDTH 8 0
BBX 9 9 1 0
BITMAP
0029EEA100
03A3029900
1700000B00
6100000810
7000000700
9000000700
C000007200
8B30295000
09EEA30000
ENDCHAR
STARTCHAR P
ENCODING 80
SWIDTH 783 0
DWIDTH 11 0
BBX 13 10 0 0
BITMAP
00000000011000
00000034788200
00000300701A00
00002103500720
00001007100710
00000028001700
03000037445000
31000060000000
34000320000000
07754100000000
ENDCHAR
STARTCHAR Q
ENCODING 81
SWIDTH 563 0
DWIDTH 8 0
BBX 10 11 1 -2
BITMAP
0022356000
0210008300
0400003700
5200002700
7000004200
7200004000
1950010000
2010200000
5AA3000000
002AC62000
000029EFB2
ENDCHAR
STARTCHAR R
ENCODING 82
SWIDTH 854 0
DWIDTH 12 0
BBX 12 10 0 0
BITMAP
000000000300
000001349770
000012053063
000010090035
000000170051
000000645310
020000808000
220003409000
410014005500
186630000884
ENDCHAR
STARTCHAR S
ENCODING 83
SWIDTH 480 0
DWIDTH 7 0
BBX 8 9 0 0
BITMAP
00003592
00015023
00018000
00009200
00001A00
00000540
14000260
36000320
08654200
ENDCHAR
STARTCHAR T
ENCODING 84
SWIDTH 577 0
DWIDTH 8 0
BBX 12 9 0 0
BITMAP
00005CFEDA61
000551124331
001200002000
003000041000
000000070000
000000250000
030000600000
450003200000
197642000000
ENDCHAR
STARTCHAR U
ENCODING 85
SWIDTH 752 0
DWIDTH 11 0
BBX 11 9 1 0
BITMAP
035786000270
320031000810
300310002800
20140000A200
20510004A000
007000187000
008000863000
00C129372100
008EB205A200
ENDCHAR
STARTCHAR V
ENCODING 86
SWIDTH 661 0
DWIDTH 9 0
BBX 10 9 1 0
BITMAP
04681006D2
2100600257
3000520006
1000240012
0000260010
0000250200
0000532100
0000811000
0000700000
ENDCHAR
STARTCHAR W
ENCODING 87
SWIDTH 822 0
DWIDTH 12 0
BBX 12 9 1 0
BITMAP
058B2000103A
300270051007
200070370006
100051550005
000043260050
000061170220
000160082200
000520093000
000500080000
ENDCHAR
STARTCHAR X
ENCODING 88
SWIDTH 813 0
DWIDTH 11 0
BBX 12 9 0 0
BITMAP
00000B40048A
000043804204
000010821000
000000820000
000000820000
000001570000
0200030B1000
15004006A132
2B8500007E80
ENDCHAR
STARTCHAR Y
ENCODING 89
SWIDTH 662 0
DWIDTH 9 0
BBX 13 11 0 -2
BITMAP
00002670000710
00001170001800
00000440008200
00000700028000
000007000A1000
03300600760000
51003718700000
70001DC5000000
90000011000000
78112740000000
08ED9200000000
ENDCHAR
STARTCHAR Z
ENCODING 90
SWIDTH 625 0
DWIDTH 9 0
BBX 10 10 0 0
BITMAP
0000000002
00003DFFF6
0000610010
0003000000
0000001000
0000120000
0001300000
0014000030
0150001610
1CFFFEB200
ENDCHAR
STARTCHAR bracketleft
ENCODING 91
SWIDTH 318 0
DWIDTH 4 0
BBX 5 10 1 -1
BITMAP
009330
009000
018000
044000
080000
080000
180000
440000
810000
B31000
ENDCHAR
STARTCHAR backslash
ENCODING 92
SWIDTH 212 0
DWIDTH 3 0
BBX 3 10 0 -1
BITMAP
3000
4000
3100
0400
0400
0400
0400
0310
0140
0020
ENDCHAR
STARTCHAR bracketright
ENCODING 93
SWIDTH 339 0
DWIDTH 5 0
BBX 5 10 0 -1
BITMAP
0003B0
000090
000170
000530
000800
000800
001700
005400
008100
239000
ENDCHAR
STARTCHAR asciicircum
ENCODING 94
SWIDTH 272 0
DWIDTH 4 0
BBX 4 4 0 2
BITMAP
0090
03F1
0975
2416
ENDCHAR
STARTCHAR underscore
ENCODING 95
SWIDTH 356 0
DWIDTH 5 0
BBX 6 2 -1 -1
BITMAP
001110
1CA872
ENDCHAR
STARTCHAR grave
ENCODING 96
SWIDTH 155 0
DWIDTH 2 0
BBX 2 3 0 4
BITMAP
10
74
06
ENDCHAR
STARTCHAR a
ENCODING 97
SWIDTH 294 0
DWIDTH 4 0
BBX 4 4 0 0
BITMAP
06EB
3914
7221
6253
ENDCHAR
STARTCHAR b
ENCODING 98
SWIDTH 247 0
DWIDTH 3 0
BBX 8 11 0 0
BITMAP
00001583
00012000
00020000
00200000
00300000
02100000
04000000
09D30000
39340000
62300000
66100000
ENDCHAR
STARTCHAR c
ENCODING 99
SWIDTH 203 0
DWIDTH 3 0
BBX 3 4 0 0
BITMAP
0270
3100
7010
6820
ENDCHAR
STARTCHAR d
ENCODING 100
SWIDTH 285 0
DWIDTH 4 0
BBX 9 11 0 0
BITMAP
0000001690
0000004000
0000040000
0000220000
0000500000
0002400000
0007000000
06A9000000
3525000000
7082000000
6675000000
ENDCHAR
STARTCHAR e
ENCODING 101
SWIDTH 206 0
DWIDTH 3 0
BBX 3 4 0 0
BITMAP
08A0
3220
7000
6720
ENDCHAR
STARTCHAR f
ENCODING 102
SWIDTH 156 0
DWIDTH 2 0
BBX 12 14 -4 -3
BITMAP
000000001593
000000013001
000000040000
000000230000
000000700000
000001600000
000005200000
00006FD40000
000007000000
000025000000
000060000000
000240000000
000500000000
743000000000
ENDCHAR
STARTCHAR g
ENCODING 103
SWIDTH 210 0
DWIDTH 3 0
BBX 6 7 -2 -3
BITMAP
000BC1
004160
006110
006C00
000650
540270
4DFC20
ENDCHAR
STARTCHAR h
ENCODING 104
SWIDTH 292 0
DWIDTH 4 0
BBX 8 11 0 0
BITMAP
00000367
00002001
00020000
00020000
00300000
00400000
04100000
058B0000
0A360000
47430000
71560000
ENDCHAR
STARTCHAR i
ENCODING 105
SWIDTH 149 0
DWIDTH 2 0
BBX 3 7 0 0
BITMAP
0010
0130
0000
1700
1500
5200
7400
ENDCHAR
STARTCHAR j
ENCODING 106
SWIDTH 136 0
DWIDTH 2 0
BBX 8 10 -5 -3
BITMAP
00000001
00000022
00000000
00000060
00000250
00000410
00000400
00002200
10002000
26420000
ENDCHAR
STARTCHAR k
ENCODING 107
SWIDTH 259 0
DWIDTH 4 0
BBX 8 11 0 0
BITMAP
00000466
00003001
00020000
00110000
00300000
01200000
04000000
07B60000
29020000
58200000
71820000
ENDCHAR
STARTCHAR l
ENCODING 108
SWIDTH 134 0
DWIDTH 2 0
BBX 7 11 0 0
BITMAP
00002870
00014000
00030000
00210000
00400000
02200000
05000000
06000000
33000000
71000000
74000000
ENDCHAR
STARTCHAR m
ENCODING 109
SWIDTH 413 0
DWIDTH 6 0
BBX 6 5 0 -1
BITMAP
1898A6
0C2B35
364472
607070
000013
ENDCHAR
STARTCHAR n
ENCODING 110
SWIDTH 291 0
DWIDTH 4 0
BBX 4 4 0 0
BITMAP
288B
0B35
4643
7056
ENDCHAR
STARTCHAR o
ENCODING 111
SWIDTH 225 0
DWIDTH 3 0
BBX 3 4 0 0
BITMAP
09D0
4580
7020
5110
ENDCHAR
STARTCHAR p
ENCODING 112
SWIDTH 261 0
DWIDTH 4 0
BBX 5 7 -1 -3
BITMAP
016250
002160
031820
0AD600
160000
430000
630000
ENDCHAR
STARTCHAR q
ENCODING 113
SWIDTH 269 0
DWIDTH 4 0
BBX 4 7 0 -3
BITMAP
05A9
3613
8060
8550
0420
0700
0910
ENDCHAR
STARTCHAR r
ENCODING 114
SWIDTH 195 0
DWIDTH 3 0
BBX 4 4 0 0
BITMAP
28C3
0B20
2600
6200
ENDCHAR
STARTCHAR s
ENCODING 115
SWIDTH 188 0
DWIDTH 3 0
BBX 3 4 0 0
BITMAP
0740
0800
1720
6610
ENDCHAR
STARTCHAR t
ENCODING 116
SWIDTH 171 0
DWIDTH 2 0
BBX 3 6 0 0
BITMAP
0050
0520
1DB0
1800
4400
4610
ENDCHAR
STARTCHAR u
ENCODING 117
SWIDTH 299 0
DWIDTH 4 0
BBX 4 4 0 0
BITMAP
1707
2446
63A3
7A46
ENDCHAR
STARTCHAR v
ENCODING 118
SWIDTH 271 0
DWIDTH 4 0
BBX 4 4 0 0
BITMAP
2828
0804
1721
4510
ENDCHAR
STARTCHAR w
ENCODING 119
SWIDTH 369 0
DWIDTH 5 0
BBX 5 4 0 0
BITMAP
373180
079040
0B8050
168B10
ENDCHAR
STARTCHAR x
ENCODING 120
SWIDTH 263 0
DWIDTH 4 0
BBX 5 4 -1 0
BITMAP
0176B0
008720
008100
183820
ENDCHAR
STARTCHAR y
ENCODING 121
SWIDTH 280 0
DWIDTH 4 0
BBX 7 7 -3 -3
BITMAP
00016070
00024370
00062A20
0006A500
00001300
51002000
36320000
ENDCHAR
STARTCHAR z
ENCODING 122
SWIDTH 238 0
DWIDTH 3 0
BBX 4 4 0 0
BITMAP
1792
0220
1310
8860
ENDCHAR
STARTCHAR braceleft
ENCODING 123
SWIDTH 291 0
DWIDTH 4 0
BBX 5 11 1 -2
BITMAP
002310
007000
026000
043000
060000
460000
070000
530000
800000
800000
130000
ENDCHAR
STARTCHAR bar
ENCODING 124
SWIDTH 162 0
DWIDTH 2 0
BBX 1 12 1 -3
BITMAP
40
40
40
40
40
40
40
40
40
40
40
40
ENDCHAR
STARTCHAR braceright
ENCODING 125
SWIDTH 285 0
DWIDTH 4 0
BBX 5 11 0 -2
BITMAP
002500
000630
000800
000800
003500
001800
007000
008000
017000
062000
310000
ENDCHAR
STARTCHAR asciitilde
ENCODING 126
SWIDTH 383 0
DWIDTH 5 0
BBX 5 2 0 2
BITMAP
08C230
126E50
ENDCHAR
STARTCHAR space.dup1
ENCODING 160
SWIDTH 150 0
DWIDTH 2 0
BBX 1 1 0 0
BITMAP
00
ENDCHAR
STARTCHAR exclamdown
ENCODING 161
SWIDTH 189 0
DWIDTH 3 0
BBX 4 8 -1 -4
BITMAP
0026
0000
0040
0320
0600
2600
9100
5000
ENDCHAR
STARTCHAR cent
ENCODING 162
SWIDTH 194 0
DWIDTH 3 0
BBX 3 6 0 -1
BITMAP
0030
0070
3910
A900
3400
2000
ENDCHAR
STARTCHAR sterling
ENCODING 163
SWIDTH 344 0
DWIDTH 5 0
BBX 5 4 0 0
BITMAP
002570
007200
035000
587510
ENDCHAR
STARTCHAR currency
ENCODING 164
SWIDTH 344 0
DWIDTH 5 0
BBX 5 4 0 0
BITMAP
077A50
020400
041500
200300
ENDCHAR
STARTCHAR yen
ENCODING 165
SWIDTH 309 0
DWIDTH 4 0
BBX 5 4 0 0
BITMAP
153020
3EA200
070000
7EE000
ENDCHAR
STARTCHAR brokenbar
ENCODING 166
SWIDTH 162 0
DWIDTH 2 0
BBX 1 12 1 -3
BITMAP
40
40
40
40
30
00
00
30
40
40
40
40
ENDCHAR
STARTCHAR section
ENCODING 167
SWIDTH 395 0
DWIDTH 6 0
BBX 8 12 -1 -4
BITMAP
00000130
00015447
00055004
00067000
00088000
00088100
00085400
00065600
11036600
60027200
85164000
05520000
ENDCHAR
STARTCHAR dieresis
ENCODING 168
SWIDTH 174 0
DWIDTH 2 0
BBX 3 1 0 4
BITMAP
5410
ENDCHAR
STARTCHAR copyright
ENCODING 169
SWIDTH 331 0
DWIDTH 5 0
BBX 5 5 0 1
BITMAP
001000
021310
153230
151500
024000
ENDCHAR
STARTCHAR ordfeminine
ENCODING 170
SWIDTH 226 0
DWIDTH 3 0
BBX 3 3 0 2
BITMAP
0100
1150
0100
ENDCHAR
STARTCHAR guillemotleft
ENCODING 171
SWIDTH 289 0
DWIDTH 4 0
BBX 5 4 0 0
BITMAP
024610
248300
77F000
08B600
ENDCHAR
STARTCHAR logicalnot
ENCODING 172
SWIDTH 265 0
DWIDTH 4 0
BBX 4 4 0 1
BITMAP
0010
BED5
0061
0030
ENDCHAR
STARTCHAR registered
ENCODING 174
SWIDTH 331 0
DWIDTH 5 0
BBX 5 4 0 1
BITMAP
035410
145230
042100
001000
ENDCHAR
STARTCHAR degree
ENCODING 176
SWIDTH 104 0
DWIDTH 1 0
BBX 2 2 1 4
BITMAP
84
52
ENDCHAR
STARTCHAR plusminus
ENCODING 177
SWIDTH 301 0
DWIDTH 4 0
BBX 4 5 0 0
BITMAP
0020
0050
3FFB
0220
3540
ENDCHAR
STARTCHAR twosuperior
ENCODING 178
SWIDTH 215 0
DWIDTH 3 0
BBX 3 2 0 2
BITMAP
0250
1620
ENDCHAR
STARTCHAR threesuperior
ENCODING 179
SWIDTH 190 0
DWIDTH 3 0
BBX 3 2 0 2
BITMAP
0420
1320
ENDCHAR
STARTCHAR acute
ENCODING 180
SWIDTH 157 0
DWIDTH 2 0
BBX 2 2 0 4
BITMAP
0A
32
ENDCHAR
STARTCHAR mu
ENCODING 181
SWIDTH 324 0
DWIDTH 5 0
BBX 6 6 -1 -2
BITMAP
004252
0061A0
036870
06C291
070000
260000
ENDCHAR
STARTCHAR paragraph
ENCODING 182
SWIDTH 392 0
DWIDTH 5 0
BBX 8 8 -2 -3
BITMAP
00000010
00003735
0004F980
000AF580
0004D540
00006700
23036300
28450000
ENDCHAR
STARTCHAR periodcentered
ENCODING 183
SWIDTH 112 0
DWIDTH 2 0
BBX 2 1 0 2
BITMAP
61
ENDCHAR
STARTCHAR cedilla
ENCODING 184
SWIDTH 115 0
DWIDTH 2 0
BBX 2 2 0 -2
BITMAP
22
30
ENDCHAR
STARTCHAR onesuperior
ENCODING 185
SWIDTH 174 0
DWIDTH 2 0
BBX 2 3 0 2
BITMAP
17
08
24
ENDCHAR
STARTCHAR ordmasculine
ENCODING 186
SWIDTH 178 0
DWIDTH 2 0
BBX 3 2 0 2
BITMAP
2110
0200
ENDCHAR
STARTCHAR guillemotright
ENCODING 187
SWIDTH 276 0
DWIDTH 4 0
BBX 5 4 -1 0
BITMAP
055800
009650
024410
144000
ENDCHAR
STARTCHAR onequarter
ENCODING 188
SWIDTH 435 0
DWIDTH 6 0
BBX 6 6 0 -1
BITMAP
000022
026140
051511
065135
0516E1
120000
ENDCHAR
STARTCHAR onehalf
ENCODING 189
SWIDTH 434 0
DWIDTH 6 0
BBX 6 6 0 -1
BITMAP
000022
026140
052547
065024
051572
120000
ENDCHAR
STARTCHAR threequarters
ENCODING 190
SWIDTH 476 0
DWIDTH 7 0
BBX 7 6 0 -1
BITMAP
00000400
02604100
02632520
13634600
01405400
03000000
ENDCHAR
STARTCHAR questiondown
ENCODING 191
SWIDTH 285 0
DWIDTH 4 0
BBX 5 8 -1 -4
BITMAP
000080
000000
000810
003300
151000
600000
923300
173000
ENDCHAR
STARTCHAR Agrave
ENCODING 192
SWIDTH 996 0
DWIDTH 14 0
BBX 14 11 0 0
BITMAP
00000000000064
00000000000000
00000002467885
00000012000049
00000020000561
00000000005160
0000000A341150
00000004CFEE20
02000001400510
43000043000711
1A8654000004A3
ENDCHAR
STARTCHAR Aacute
ENCODING 193
SWIDTH 996 0
DWIDTH 14 0
BBX 15 11 0 0
BITMAP
0000000000001720
0000000000000000
0000000246788500
0000001200004900
0000002000056100
0000000000516000
0000000A34115000
00000004CFEE2000
0200000140051000
4300004300071100
1A8654000004A300
ENDCHAR
STARTCHAR Acircumflex
ENCODING 194
SWIDTH 996 0
DWIDTH 14 0
BBX 15 11 0 0
BITMAP
0000000000001240
0000000000000000
0000000246788500
0000001200004900
0000002000056100
0000000000516000
0000000A34115000
00000004CFEE2000
0200000140051000
4300004300071100
1A8654000004A300
ENDCHAR
STARTCHAR Atilde
ENCODING 195
SWIDTH 996 0
DWIDTH 14 0
BBX 16 11 0 0
BITMAP
0000000000005A31
0000000000008B50
0000000246788500
0000001200004900
0000002000056100
0000000000516000
0000000A34115000
00000004CFEE2000
0200000140051000
4300004300071100
1A8654000004A300
ENDCHAR
STARTCHAR Adieresis
ENCODING 196
SWIDTH 996 0
DWIDTH 14 0
BBX 15 11 0 0
BITMAP
0000000000000440
0000000000000000
0000000246788500
0000001200004900
0000002000056100
0000000000516000
0000000A34115000
00000004CFEE2000
0200000140051000
4300004300071100
1A8654000004A300
ENDCHAR
STARTCHAR Aring
ENCODING 197
SWIDTH 996 0
DWIDTH 14 0
BBX 15 11 0 0
BITMAP
0000000000000120
0000000000000720
0000000246788500
0000001200004900
0000002000056100
0000000000516000
0000000A34115000
00000004CFEE2000
0200000140051000
4300004300071100
1A8654000004A300
ENDCHAR
STARTCHAR AE
ENCODING 198
SWIDTH 1271 0
DWIDTH 18 0
BBX 19 9 0 0
BITMAP
00000002467885133740
0000001200004A700030
00000020000543830000
00000000005162480000
000000084410A2000000
00000003DFFF80000000
02000001400170000100
430000430001A0001300
1A865410000077446000
ENDCHAR
STARTCHAR Ccedilla
ENCODING 199
SWIDTH 557 0
DWIDTH 8 0
BBX 8 10 1 -1
BITMAP
00233467
03100003
33000000
80000000
A0000000
C0000010
B3000040
2B512910
00473000
00030000
ENDCHAR
STARTCHAR Egrave
ENCODING 200
SWIDTH 463 0
DWIDTH 6 0
BBX 8 11 0 0
BITMAP
00001720
00000000
00033481
00260020
001A2000
005CA000
08510000
45000000
82000010
64000410
08534500
ENDCHAR
STARTCHAR Eacute
ENCODING 201
SWIDTH 463 0
DWIDTH 6 0
BBX 8 11 0 0
BITMAP
00000640
00000000
00033481
00260020
001A2000
005CA000
08510000
45000000
82000010
64000410
08534500
ENDCHAR
STARTCHAR Ecircumflex
ENCODING 202
SWIDTH 463 0
DWIDTH 6 0
BBX 8 11 0 0
BITMAP
00001330
00000000
00033481
00260020
001A2000
005CA000
08510000
45000000
82000010
64000410
08534500
ENDCHAR
STARTCHAR Edieresis
ENCODING 203
SWIDTH 463 0
DWIDTH 6 0
BBX 8 11 0 0
BITMAP
00000440
00000000
00033481
00260020
001A2000
005CA000
08510000
45000000
82000010
64000410
08534500
ENDCHAR
STARTCHAR Igrave
ENCODING 204
SWIDTH 514 0
DWIDTH 7 0
BBX 10 12 0 0
BITMAP
0000000100
0000001830
0000000000
0000000595
0000026240
0000150700
0000400800
0000303400
0100006000
7000025000
A302870000
3DEB400000
ENDCHAR
STARTCHAR Iacute
ENCODING 205
SWIDTH 514 0
DWIDTH 7 0
BBX 10 11 0 0
BITMAP
0000000360
0000000000
0000000595
0000026240
0000150700
0000400800
0000303400
0100006000
7000025000
A302870000
3DEB400000
ENDCHAR
STARTCHAR Icircumflex
ENCODING 206
SWIDTH 514 0
DWIDTH 7 0
BBX 10 11 0 0
BITMAP
0000000142
0000000000
0000000595
0000026240
0000150700
0000400800
0000303400
0100006000
7000025000
A302870000
3DEB400000
ENDCHAR
STARTCHAR Idieresis
ENCODING 207
SWIDTH 514 0
DWIDTH 7 0
BBX 10 11 0 0
BITMAP
0000000441
0000000000
0000000595
0000026240
0000150700
0000400800
0000303400
0100006000
7000025000
A302870000
3DEB400000
ENDCHAR
STARTCHAR Eth
ENCODING 208
SWIDTH 800 0
DWIDTH 11 0
BBX 12 10 0 0
BITMAP
000000000100
000345633000
003000210100
001000600210
000003500060
00005DEE0080
000189100071
000025000070
057560000040
643466543200
ENDCHAR
STARTCHAR Ntilde
ENCODING 209
SWIDTH 796 0
DWIDTH 11 0
BBX 18 11 -2 0
BITMAP
00000000001C320000
00000000004A810000
0000578730000018A1
00010002B100006001
000000024800041000
000000040450040000
000000040090310000
400000220045400000
600000400009300000
A10015000008400000
3A9860000003300000
ENDCHAR
STARTCHAR Ograve
ENCODING 210
SWIDTH 608 0
DWIDTH 9 0
BBX 9 11 1 0
BITMAP
0000640000
0000000000
0029EEA100
03A3028A00
1700000B00
6100000720
7000000700
9000000700
B100006300
8B31295000
08EEA30000
ENDCHAR
STARTCHAR Oacute
ENCODING 211
SWIDTH 608 0
DWIDTH 9 0
BBX 9 11 1 0
BITMAP
0000370000
0000000000
0029EEA100
03A3028A00
1700000B00
6100000720
7000000700
9000000700
B100006300
8B31295000
08EEA30000
ENDCHAR
STARTCHAR Ocircumflex
ENCODING 212
SWIDTH 608 0
DWIDTH 9 0
BBX 9 11 1 0
BITMAP
0000372000
0000000000
0029EEA100
03A3028A00
1700000B00
6100000720
7000000700
9000000700
B100006300
8B31295000
08EEA30000
ENDCHAR
STARTCHAR Otilde
ENCODING 213
SWIDTH 608 0
DWIDTH 9 0
BBX 9 11 1 0
BITMAP
0000B93000
0001320000
0029EEA100
03A3028A00
1700000B00
6100000720
7000000700
9000000700
B100006300
8B31295000
08EEA30000
ENDCHAR
STARTCHAR Odieresis
ENCODING 214
SWIDTH 608 0
DWIDTH 9 0
BBX 9 11 1 0
BITMAP
0000341000
0000000000
0029EEA100
03A3028A00
1700000B00
6100000720
7000000700
9000000700
B100006300
8B31295000
08EEA30000
ENDCHAR
STARTCHAR multiply
ENCODING 215
SWIDTH 301 0
DWIDTH 4 0
BBX 4 4 0 0
BITMAP
0406
0150
0350
1540
ENDCHAR
STARTCHAR Oslash
ENCODING 216
SWIDTH 605 0
DWIDTH 8 0
BBX 9 11 1 -1
BITMAP
0000001100
0029DFA300
03A4141900
1900360810
7201800710
8007100800
8054001800
8270008200
7131294000
39EEA20000
1000000000
ENDCHAR
STARTCHAR Ugrave
ENCODING 217
SWIDTH 717 0
DWIDTH 10 0
BBX 12 11 0 0
BITMAP
000000020000
000000035000
015679100072
040012000280
300040000810
300400002A00
200500009400
00340005A000
005300368000
006715808010
002DE700B600
ENDCHAR
STARTCHAR Uacute
ENCODING 218
SWIDTH 717 0
DWIDTH 10 0
BBX 12 11 0 0
BITMAP
000000000200
000000005200
015679100072
040012000280
300040000810
300400002A00
200500009400
00340005A000
005300368000
006715808010
002DE700B600
ENDCHAR
STARTCHAR Ucircumflex
ENCODING 219
SWIDTH 718 0
DWIDTH 10 0
BBX 12 11 0 0
BITMAP
00000000A000
000000043600
015679100072
040012000280
300040000810
300400002A00
200500009400
00340005A000
005300368000
006715808010
002DE700B600
ENDCHAR
STARTCHAR Udieresis
ENCODING 220
SWIDTH 718 0
DWIDTH 10 0
BBX 12 11 0 0
BITMAP
000000034200
000000000000
015679100072
040012000280
300040000810
300400002A00
200500009400
00340005A000
005300368000
006715808010
002DE700B600
ENDCHAR
STARTCHAR Yacute
ENCODING 221
SWIDTH 662 0
DWIDTH 9 0
BBX 13 13 0 -2
BITMAP
00000000071000
00000000440000
00002670000710
00001170001800
00000440008200
00000700028000
000007000A1000
03300600760000
51003718700000
70001DC5000000
90000011000000
78112740000000
08ED9200000000
ENDCHAR
STARTCHAR Thorn
ENCODING 222
SWIDTH 745 0
DWIDTH 10 0
BBX 11 10 0 0
BITMAP
000000000010
000000001410
000000007000
00000035FC30
0000030756C0
0000000B10A0
0200002A0030
310000805700
330003265100
077541000000
ENDCHAR
STARTCHAR germandbls
ENCODING 223
SWIDTH 304 0
DWIDTH 4 0
BBX 13 14 -5 -3
BITMAP
00000000005300
00000000172240
00000000500560
00000001003C10
0000000106C200
000000219A1000
00000046800000
00000046000000
00000131100000
00000400700000
0000034E800000
00001100000000
00001000000000
35410000000000
ENDCHAR
STARTCHAR agrave
ENCODING 224
SWIDTH 294 0
DWIDTH 4 0
BBX 4 7 0 0
BITMAP
0010
0083
0006
06EB
3914
7221
6253
ENDCHAR
STARTCHAR aacute
ENCODING 225
SWIDTH 294 0
DWIDTH 4 0
BBX 4 6 0 0
BITMAP
000A
0023
06EB
3914
7221
6253
ENDCHAR
STARTCHAR acircumflex
ENCODING 226
SWIDTH 294 0
DWIDTH 4 0
BBX 4 7 0 0
BITMAP
0022
0024
0000
06EB
3914
7221
6253
ENDCHAR
STARTCHAR atilde
ENCODING 227
SWIDTH 294 0
DWIDTH 4 0
BBX 5 6 0 0
BITMAP
00B310
036B00
06EB00
391400
722100
625300
ENDCHAR
STARTCHAR adieresis
ENCODING 228
SWIDTH 284 0
DWIDTH 4 0
BBX 4 5 0 0
BITMAP
0055
06EB
3914
7221
6253
ENDCHAR
STARTCHAR aring
ENCODING 229
SWIDTH 294 0
DWIDTH 4 0
BBX 4 6 0 0
BITMAP
0056
0053
06EB
3914
7221
6253
ENDCHAR
STARTCHAR ae
ENCODING 230
SWIDTH 363 0
DWIDTH 5 0
BBX 5 4 0 0
BITMAP
06BCC0
342510
707200
664830
ENDCHAR
STARTCHAR ccedilla
ENCODING 231
SWIDTH 203 0
DWIDTH 3 0
BBX 3 6 0 -2
BITMAP
0270
3100
7010
6710
0400
2200
ENDCHAR
STARTCHAR egrave
ENCODING 232
SWIDTH 206 0
DWIDTH 3 0
BBX 4 7 0 0
BITMAP
0010
0380
0051
08A0
3220
7000
6720
ENDCHAR
STARTCHAR eacute
ENCODING 233
SWIDTH 206 0
DWIDTH 3 0
BBX 4 6 0 0
BITMAP
0054
0050
08A0
3220
7000
6720
ENDCHAR
STARTCHAR ecircumflex
ENCODING 234
SWIDTH 206 0
DWIDTH 3 0
BBX 4 7 0 0
BITMAP
0040
0231
0000
08A0
3220
7000
6720
ENDCHAR
STARTCHAR edieresis
ENCODING 235
SWIDTH 206 0
DWIDTH 3 0
BBX 4 5 0 0
BITMAP
0433
08A0
3220
7000
6720
ENDCHAR
STARTCHAR igrave
ENCODING 236
SWIDTH 149 0
DWIDTH 2 0
BBX 3 7 0 0
BITMAP
0100
0A10
0240
1700
1500
5200
7400
ENDCHAR
STARTCHAR iacute
ENCODING 237
SWIDTH 149 0
DWIDTH 2 0
BBX 3 6 0 0
BITMAP
0090
0240
1700
1500
5200
7400
ENDCHAR
STARTCHAR icircumflex
ENCODING 238
SWIDTH 149 0
DWIDTH 2 0
BBX 3 7 0 0
BITMAP
0320
0240
0000
1700
1500
5200
7400
ENDCHAR
STARTCHAR idieresis
ENCODING 239
SWIDTH 149 0
DWIDTH 2 0
BBX 3 5 0 0
BITMAP
0550
1700
1500
5200
7400
ENDCHAR
STARTCHAR eth
ENCODING 240
SWIDTH 234 0
DWIDTH 3 0
BBX 4 10 0 0
BITMAP
2100
5200
1820
1650
0070
0060
06B1
3340
7030
6710
ENDCHAR
STARTCHAR ntilde
ENCODING 241
SWIDTH 291 0
DWIDTH 4 0
BBX 5 6 0 0
BITMAP
00B310
036B00
288B00
0B3500
464300
705600
ENDCHAR
STARTCHAR ograve
ENCODING 242
SWIDTH 225 0
DWIDTH 3 0
BBX 4 7 0 0
BITMAP
0010
01B0
0033
09D0
4580
7020
5110
ENDCHAR
STARTCHAR oacute
ENCODING 243
SWIDTH 225 0
DWIDTH 3 0
BBX 4 6 0 0
BITMAP
0046
0050
09D0
4580
7020
5110
ENDCHAR
STARTCHAR ocircumflex
ENCODING 244
SWIDTH 225 0
DWIDTH 3 0
BBX 4 7 0 0
BITMAP
0040
0123
0000
09D0
4580
7020
5110
ENDCHAR
STARTCHAR otilde
ENCODING 245
SWIDTH 225 0
DWIDTH 3 0
BBX 4 6 0 0
BITMAP
0474
04A5
09D0
4580
7020
5110
ENDCHAR
STARTCHAR odieresis
ENCODING 246
SWIDTH 225 0
DWIDTH 3 0
BBX 4 5 0 0
BITMAP
0433
09D0
4580
7020
5110
ENDCHAR
STARTCHAR divide
ENCODING 247
SWIDTH 301 0
DWIDTH 4 0
BBX 4 4 0 0
BITMAP
0030
0000
1553
0110
ENDCHAR
STARTCHAR oslash
ENCODING 248
SWIDTH 225 0
DWIDTH 3 0
BBX 4 6 0 -1
BITMAP
0001
08D0
3490
6440
7610
1000
ENDCHAR
STARTCHAR ugrave
ENCODING 249
SWIDTH 299 0
DWIDTH 4 0
BBX 4 7 0 0
BITMAP
0010
0074
0006
1707
2446
63A3
7A46
ENDCHAR
STARTCHAR uacute
ENCODING 250
SWIDTH 299 0
DWIDTH 4 0
BBX 5 6 0 0
BITMAP
000910
001400
170700
244600
63A300
7A4600
ENDCHAR
STARTCHAR ucircumflex
ENCODING 251
SWIDTH 299 0
DWIDTH 4 0
BBX 4 7 0 0
BITMAP
0013
0024
0000
1707
2446
63A3
7A46
ENDCHAR
STARTCHAR udieresis
ENCODING 252
SWIDTH 299 0
DWIDTH 4 0
BBX 4 5 0 0
BITMAP
0055
1707
2446
63A3
7A46
ENDCHAR
STARTCHAR yacute
ENCODING 253
SWIDTH 280 0
DWIDTH 4 0
BBX 8 9 -3 -3
BITMAP
00000082
00000150
00016070
00024370
00062A20
0006A500
00001300
51002000
36320000
ENDCHAR
STARTCHAR thorn
ENCODING 254
SWIDTH 261 0
DWIDTH 4 0
BBX 5 11 -1 -3
BITMAP
000110
000710
000600
003300
006250
014160
051920
0BD600
160000
430000
630000
ENDCHAR
STARTCHAR ydieresis
ENCODING 255
SWIDTH 280 0
DWIDTH 4 0
BBX 7 8 -3 -3
BITMAP
00000550
00016070
00024370
00062A20
0006A500
00001300
51002000
36320000
ENDCHAR
STARTCHAR dotlessi
ENCODING 305
SWIDTH 149 0
DWIDTH 2 0
BBX 2 4 0 0
BITMAP
17
15
52
74
ENDCHAR
STARTCHAR Lslash
ENCODING 321
SWIDTH 657 0
DWIDTH 9 0
BBX 11 9 0 0
BITMAP
00000005DC00
000000561610
000001800200
000017430000
00013C700000
00002A000000
156393000000
622CA2114000
5EC45CFC2000
ENDCHAR
STARTCHAR lslash
ENCODING 322
SWIDTH 134 0
DWIDTH 2 0
BBX 7 11 0 0
BITMAP
00002770
00014000
00030000
00210000
01620000
04200000
05000000
05000000
33000000
71000000
74000000
ENDCHAR
STARTCHAR OE
ENCODING 338
SWIDTH 827 0
DWIDTH 12 0
BBX 12 9 1 0
BITMAP
0029EEA33482
03A302970011
1700001C2000
6000003AC000
700007610000
900047000000
C00074000010
8B3046000320
09EEA8534500
ENDCHAR
STARTCHAR oe
ENCODING 339
SWIDTH 345 0
DWIDTH 5 0
BBX 5 4 0 0
BITMAP
08C9A0
338110
608000
668620
ENDCHAR
STARTCHAR Scaron
ENCODING 352
SWIDTH 480 0
DWIDTH 7 0
BBX 8 11 0 0
BITMAP
00000651
00000000
00003592
00015023
00018000
00009200
00001A00
00000540
14000260
36000320
08654200
ENDCHAR
STARTCHAR scaron
ENCODING 353
SWIDTH 188 0
DWIDTH 3 0
BBX 3 6 0 0
BITMAP
0400
0000
0740
0800
1720
6610
ENDCHAR
STARTCHAR Ydieresis
ENCODING 376
SWIDTH 662 0
DWIDTH 9 0
BBX 13 13 0 -2
BITMAP
00000000440000
00000000000000
00002670000710
00001170001800
00000440008200
00000700028000
000007000A1000
03300600760000
51003718700000
70001DC5000000
90000011000000
78112740000000
08ED9200000000
ENDCHAR
STARTCHAR Zcaron
ENCODING 381
SWIDTH 625 0
DWIDTH 9 0
BBX 10 11 0 0
BITMAP
0000004720
0000000002
00003DFFF6
0000610010
0003000000
0000001000
0000120000
0001300000
0014000030
0150001610
1CFFFEB200
ENDCHAR
STARTCHAR zcaron
ENCODING 382
SWIDTH 248 0
DWIDTH 3 0
BBX 4 6 0 0
BITMAP
0230
0000
1792
0220
1310
8850
ENDCHAR
STARTCHAR florin
ENCODING 402
SWIDTH 214 0
DWIDTH 3 0
BBX 5 5 -1 -1
BITMAP
002C30
008100
06FA00
034000
330000
ENDCHAR
STARTCHAR circumflex
ENCODING 710
SWIDTH 196 0
DWIDTH 3 0
BBX 3 2 0 5
BITMAP
0400
2320
ENDCHAR
STARTCHAR caron
ENCODING 711
SWIDTH 196 0
DWIDTH 3 0
BBX 2 1 0 5
BITMAP
31
ENDCHAR
STARTCHAR breve
ENCODING 728
SWIDTH 198 0
DWIDTH 3 0
BBX 3 2 0 4
BITMAP
1310
2D10
ENDCHAR
STARTCHAR dotaccent
ENCODING 729
SWIDTH 89 0
DWIDTH 1 0
BBX 1 1 0 4
BITMAP
60
ENDCHAR
STARTCHAR ring
ENCODING 730
SWIDTH 117 0
DWIDTH 2 0
BBX 2 2 0 4
BITMAP
64
62
ENDCHAR
STARTCHAR ogonek
ENCODING 731
SWIDTH 124 0
DWIDTH 2 0
BBX 2 2 0 -2
BITMAP
31
41
ENDCHAR
STARTCHAR tilde
ENCODING 732
SWIDTH 222 0
DWIDTH 3 0
BBX 3 2 0 4
BITMAP
4740
4A50
ENDCHAR
STARTCHAR hungarumlaut
ENCODING 733
SWIDTH 253 0
DWIDTH 4 0
BBX 4 2 0 4
BITMAP
1A92
5450
ENDCHAR
STARTCHAR mu.dup2
ENCODING 956
SWIDTH 324 0
DWIDTH 5 0
BBX 6 6 -1 -2
BITMAP
004252
0061A0
036870
06C291
070000
260000
ENDCHAR
STARTCHAR endash
ENCODING 8211
SWIDTH 500 0
DWIDTH 7 0
BBX 7 1 0 2
BITMAP
AFFFFF90
ENDCHAR
STARTCHAR emdash
ENCODING 8212
SWIDTH 1000 0
DWIDTH 14 0
BBX 14 1 0 2
BITMAP
AFFFFFFFFFFFF9
ENDCHAR
STARTCHAR quoteleft
ENCODING 8216
SWIDTH 87 0
DWIDTH 1 0
BBX 2 3 0 3
BITMAP
02
25
11
ENDCHAR
STARTCHAR quoteright
ENCODING 8217
SWIDTH 87 0
DWIDTH 1 0
BBX 2 3 0 3
BITMAP
06
05
10
ENDCHAR
STARTCHAR quotesinglbase
ENCODING 8218
SWIDTH 112 0
DWIDTH 2 0
BBX 2 1 0 0
BITMAP
42
ENDCHAR
STARTCHAR quotedblleft
ENCODING 8220
SWIDTH 167 0
DWIDTH 2 0
BBX 3 2 0 4
BITMAP
0440
3560
ENDCHAR
STARTCHAR quotedblright
ENCODING 8221
SWIDTH 167 0
DWIDTH 2 0
BBX 3 2 0 4
BITMAP
0770
1430
ENDCHAR
STARTCHAR quotedblbase
ENCODING 8222
SWIDTH 192 0
DWIDTH 3 0
BBX 3 2 0 -1
BITMAP
4540
4400
ENDCHAR
STARTCHAR dagger
ENCODING 8224
SWIDTH 185 0
DWIDTH 3 0
BBX 4 10 0 -2
BITMAP
0030
0060
0320
7EC4
0500
0400
1200
3000
3000
1000
ENDCHAR
STARTCHAR daggerdbl
ENCODING 8225
SWIDTH 185 0
DWIDTH 3 0
BBX 5 10 -1 -2
BITMAP
000300
000600
003200
03EE40
005000
014000
1CD600
030000
030000
010000
ENDCHAR
STARTCHAR bullet
ENCODING 8226
SWIDTH 207 0
DWIDTH 3 0
BBX 3 2 0 1
BITMAP
1D40
2E30
ENDCHAR
STARTCHAR ellipsis
ENCODING 8230
SWIDTH 376 0
DWIDTH 5 0
BBX 1 1 4 0
BITMAP
00
ENDCHAR
STARTCHAR perthousand
ENCODING 8240
SWIDTH 571 0
DWIDTH 8 0
BBX 8 7 0 -1
BITMAP
00001000
00005000
00541000
74747045
57444515
05094552
31000000
ENDCHAR
STARTCHAR guilsinglleft
ENCODING 8249
SWIDTH 189 0
DWIDTH 3 0
BBX 3 4 0 0
BITMAP
0240
2400
7300
0800
ENDCHAR
STARTCHAR guilsinglright
ENCODING 8250
SWIDTH 176 0
DWIDTH 2 0
BBX 4 4 -1 0
BITMAP
0540
0091
0240
1400
ENDCHAR
STARTCHAR fraction
ENCODING 8260
SWIDTH 220 0
DWIDTH 3 0
BBX 6 6 -1 -1
BITMAP
000022
000140
000500
005000
041000
120000
ENDCHAR
STARTCHAR Euro
ENCODING 8364
SWIDTH 360 0
DWIDTH 5 0
BBX 5 5 0 0
BITMAP
04DC20
8FF000
450000
650000
161300
ENDCHAR
STARTCHAR trademark
ENCODING 8482
SWIDTH 389 0
DWIDTH 5 0
BBX 4 2 1 2
BITMAP
6255
5355
ENDCHAR
STARTCHAR minus
ENCODING 8722
SWIDTH 301 0
DWIDTH 4 0
BBX 4 1 0 2
BITMAP
3FFB
ENDCHAR
STARTCHAR fi
ENCODING 64257
SWIDTH 297 0
DWIDTH 4 0
BBX 12 14 -4 -3
BITMAP
000000001593
000000013001
000000040000
000000230000
000000604000
000001613000
000005200000
00005FFD0000
000018030000
000025330000
000070650000
000150000000
000400000000
743000000000
ENDCHAR
STARTCHAR fl
ENCODING 64258
SWIDTH 290 0
DWIDTH 4 0
BBX 13 14 -4 -3
BITMAP
00000000177790
00000001404000
00000005030000
00000033120000
00000070400000
00000161400000
00000626000000
00004EF9000000
00001804000000
00003533000000
00007057000000
00024000000000
00040000000000
74300000000000
ENDCHAR
STARTCHAR .notdef
ENCODING -1
SWIDTH 150 0
DWIDTH 2 0
BBX 1 1 0 0
BITMAP
00
ENDCHAR
STARTCHAR .null
ENCODING -1
SWIDTH 0 0
DWIDTH 0 0
BBX 1 1 0 0
BITMAP
00
ENDCHAR
STARTCHAR nonmarkingreturn
ENCODING -1
SWIDTH 150 0
DWIDTH 2 0
BBX 1 1 0 0
BITMAP
00
ENDCHAR
ENDFONT
